<svg xmlns="http://www.w3.org/2000/svg" version="1.1" xmlns:xlink="http://www.w3.org/1999/xlink" xmlns:svgjs="http://svgjs.dev/svgjs" width="1000" height="623" viewBox="0 0 1000 623"><g transform="matrix(1,0,0,1,-0.6060606060606233,0.2522267206477409)"><svg viewBox="0 0 396 247" data-background-color="#c8c8c8" preserveAspectRatio="xMidYMid meet" height="623" width="1000" xmlns="http://www.w3.org/2000/svg" xmlns:xlink="http://www.w3.org/1999/xlink"><g id="tight-bounds" transform="matrix(1,0,0,1,0.2400000000000091,-0.09999999999999432)"><svg viewBox="0 0 395.52 247.2" height="247.2" width="395.52"><g><svg></svg></g><g><svg viewBox="0 0 395.52 247.2" height="247.2" width="395.52"><g transform="matrix(1,0,0,1,137.86854412955466,47.215199999999996)"><svg viewBox="0 0 119.78291174089068 152.7696" height="152.7696" width="119.78291174089068"><g><svg viewBox="0 0 119.78291174089068 152.7696" height="152.7696" width="119.78291174089068"><g><svg viewBox="0 0 119.78291174089068 152.7696" height="152.7696" width="119.78291174089068"><g><svg viewBox="0 0 119.78291174089068 152.7696" height="152.7696" width="119.78291174089068"><g><svg viewBox="0 0 119.78291174089068 152.7696" height="152.7696" width="119.78291174089068"><g><svg viewBox="0 0 119.78291174089068 152.7696" height="152.7696" width="119.78291174089068"><g transform="matrix(1,0,0,1,0,0)"><svg width="119.78291174089068" viewBox="1.2899999618530273 -35.599998474121094 28.369998931884766 36.189998626708984" height="152.7696" data-palette-color="#6b7280"><path d="M29.66-8.69L29.66-8.69Q29.66-6.67 28.92-5.2 28.17-3.74 26.93-2.71 25.68-1.68 24.06-1.04 22.44-0.39 20.68-0.02 18.92 0.34 17.15 0.46 15.38 0.59 13.84 0.59L13.84 0.59Q12.33 0.59 10.71 0.48 9.08 0.37 7.47 0.1 5.86-0.17 4.3-0.62 2.73-1.07 1.34-1.76L1.34-1.76 1.29-33.2Q2.66-33.76 4.2-34.22 5.74-34.67 7.34-34.97 8.94-35.28 10.52-35.44 12.11-35.6 13.6-35.6L13.6-35.6Q15.33-35.6 17.1-35.38 18.87-35.16 20.51-34.64 22.14-34.13 23.56-33.31 24.98-32.5 26.04-31.3 27.1-30.1 27.7-28.52 28.3-26.93 28.3-24.85L28.3-24.85Q28.3-23.49 27.91-22.29 27.51-21.09 26.78-20.14 26.05-19.19 25-18.52 23.95-17.85 22.63-17.53L22.63-17.53Q24.22-17.11 25.52-16.31 26.83-15.5 27.75-14.36 28.66-13.21 29.16-11.77 29.66-10.33 29.66-8.69ZM17.26-22.61L17.26-22.61Q17.26-23.32 16.97-23.82 16.67-24.32 16.25-24.63 15.82-24.95 15.32-25.1 14.82-25.24 14.43-25.24L14.43-25.24Q13.94-25.24 13.48-25.1 13.01-24.95 12.57-24.76L12.57-24.76 12.43-19.34Q12.99-19.34 13.82-19.43 14.65-19.53 15.42-19.86 16.19-20.19 16.72-20.84 17.26-21.48 17.26-22.61ZM13.79-14.65L13.79-14.65Q13.09-14.65 12.43-14.5L12.43-14.5 12.33-8.94Q12.7-8.86 13.05-8.8 13.4-8.74 13.75-8.74L13.75-8.74Q14.26-8.74 14.87-8.85 15.48-8.96 16.02-9.29 16.55-9.62 16.91-10.18 17.26-10.74 17.26-11.67L17.26-11.67Q17.26-12.6 16.91-13.18 16.55-13.77 16.04-14.1 15.53-14.43 14.92-14.54 14.31-14.65 13.79-14.65Z" opacity="1" transform="matrix(1,0,0,1,0,0)" fill="#6b7280" class="undefined-text-0" data-fill-palette-color="primary" id="text-0"></path></svg></g></svg></g></svg></g></svg></g></svg></g></svg></g></svg></g><g><path d="M0 123.6c0-68.262 55.338-123.6 123.6-123.6 30.402 0 58.24 10.976 79.768 29.183l-11.147 0c-19.26-14.022-42.974-22.294-68.621-22.295-64.458 0-116.712 52.254-116.712 116.712 0 64.458 52.254 116.712 116.712 116.712 25.647 0 49.361-8.272 68.621-22.295l11.147 0c-21.528 18.206-49.366 29.183-79.768 29.183-68.262 0-123.6-55.338-123.6-123.6z" fill="#6b7280" stroke="transparent" data-fill-palette-color="tertiary"></path></g></svg></g><defs></defs></svg><rect width="395.52" height="247.2" fill="none" stroke="none" visibility="hidden"></rect></g></svg></g></svg>